<svg width="85" height="96" viewBox="0 0 85 96" fill="none" xmlns="http://www.w3.org/2000/svg">
<path d="M33.4055 41.278V37.0745C33.4055 35.9478 32.9579 34.8672 32.1612 34.0705C31.3645 33.2738 30.2839 32.8262 29.1572 32.8262H8.30326C7.17683 32.8266 6.09669 33.2744 5.30034 34.0711C4.504 34.8678 4.05664 35.9481 4.05664 37.0745V91.7514C4.05664 92.8782 4.50423 93.9588 5.30095 94.7555C6.09767 95.5522 7.17825 95.9998 8.30498 95.9998H80.22C81.3467 95.9998 82.4273 95.5522 83.224 94.7555C84.0207 93.9588 84.4683 92.8782 84.4683 91.7514V49.7764C84.4683 48.6497 84.0207 47.5691 83.224 46.7724C82.4273 45.9757 81.3467 45.5281 80.22 45.5281H37.6504C36.524 45.5272 35.444 45.079 34.648 44.282C33.852 43.485 33.4051 42.4045 33.4055 41.278Z" fill="#9DA9B3"/>
<path d="M81.7384 0.000936828L33.1765 0.0941693C32.8757 0.0947467 32.6323 0.339047 32.6329 0.639829L32.7512 62.2898C32.7518 62.5906 32.9961 62.8339 33.2969 62.8333L81.8589 62.7401C82.1597 62.7395 82.403 62.4952 82.4025 62.1945L82.2841 0.544505C82.2835 0.243723 82.0392 0.00035937 81.7384 0.000936828Z" fill="#F4F5F6"/>
<path d="M75.9291 21.1002L43.4453 21.1626L43.4472 22.1364L75.931 22.074L75.9291 21.1002Z" fill="#9DA9B3"/>
<path d="M75.9383 25.5024L37.7705 25.5757L37.772 26.3771L75.9398 26.3038L75.9383 25.5024Z" fill="#9DA9B3"/>
<path d="M75.9451 30.313L37.7773 30.3862L37.7789 31.1876L75.9467 31.1144L75.9451 30.313Z" fill="#9DA9B3"/>
<path d="M75.9578 35.5688L37.79 35.6421L37.7916 36.4435L75.9594 36.3702L75.9578 35.5688Z" fill="#9DA9B3"/>
<path d="M61.8231 40.8938L37.7998 40.9399L37.8013 41.7414L61.8247 41.6952L61.8231 40.8938Z" fill="#9DA9B3"/>
<path d="M75.9852 49.8901L37.8174 49.9634L37.8189 50.7648L75.9867 50.6915L75.9852 49.8901Z" fill="#24DB57"/>
<path d="M75.994 54.7006L37.8262 54.7739L37.8277 55.5753L75.9955 55.5021L75.994 54.7006Z" fill="#24DB57"/>
<path d="M76.0037 59.9575L37.8359 60.0308L37.8375 60.8322L76.0053 60.7589L76.0037 59.9575Z" fill="#24DB57"/>
<path d="M77.0322 4.95292L37.5029 5.02881L37.5268 17.4464L77.0561 17.3705L77.0322 4.95292Z" fill="#FAD7B8"/>
<path d="M75.6004 37.1506L63.7344 37.1733L63.7566 48.7516L75.6226 48.7288L75.6004 37.1506Z" fill="white"/>
<path d="M29.3489 41.278V37.0745C29.3489 35.9478 28.9013 34.8672 28.1046 34.0705C27.3079 33.2738 26.2273 32.8262 25.1005 32.8262H4.24662C3.12019 32.8266 2.04005 33.2744 1.2437 34.0711C0.447355 34.8678 -9.26917e-08 35.9481 0 37.0745L0 91.7514C0 92.8782 0.447592 93.9588 1.24431 94.7555C2.04103 95.5522 3.12161 95.9998 4.24834 95.9998H76.1634C77.2901 95.9998 78.3707 95.5522 79.1674 94.7555C79.9641 93.9588 80.4117 92.8782 80.4117 91.7514V49.7764C80.4117 48.6497 79.9641 47.5691 79.1674 46.7724C78.3707 45.9757 77.2901 45.5281 76.1634 45.5281H33.5938C32.4673 45.5272 31.3874 45.079 30.5914 44.282C29.7953 43.485 29.3484 42.4045 29.3489 41.278Z" fill="#D7DCE0"/>
</svg>
