<svg width="16" height="16" viewBox="0 0 16 16" fill="none" xmlns="http://www.w3.org/2000/svg">
<g clip-path="url(#clip0_119_79)">
<path d="M4.11301 11.9998C4.25074 11.6095 4.50617 11.2715 4.84407 11.0324C5.18198 10.7933 5.58573 10.6649 5.99967 10.6649C6.41362 10.6649 6.81737 10.7933 7.15527 11.0324C7.49318 11.2715 7.74861 11.6095 7.88634 11.9998H14.6663V13.3332H7.88634C7.74861 13.7235 7.49318 14.0616 7.15527 14.3007C6.81737 14.5397 6.41362 14.6681 5.99967 14.6681C5.58573 14.6681 5.18198 14.5397 4.84407 14.3007C4.50617 14.0616 4.25074 13.7235 4.11301 13.3332H1.33301V11.9998H4.11301ZM8.11301 7.33318C8.25074 6.94282 8.50617 6.6048 8.84407 6.3657C9.18198 6.12661 9.58573 5.99821 9.99967 5.99821C10.4136 5.99821 10.8174 6.12661 11.1553 6.3657C11.4932 6.6048 11.7486 6.94282 11.8863 7.33318H14.6663V8.66651H11.8863C11.7486 9.05687 11.4932 9.39489 11.1553 9.63398C10.8174 9.87308 10.4136 10.0015 9.99967 10.0015C9.58573 10.0015 9.18198 9.87308 8.84407 9.63398C8.50617 9.39489 8.25074 9.05687 8.11301 8.66651H1.33301V7.33318H8.11301ZM4.11301 2.66651C4.25074 2.27615 4.50617 1.93813 4.84407 1.69904C5.18198 1.45994 5.58573 1.33154 5.99967 1.33154C6.41362 1.33154 6.81737 1.45994 7.15527 1.69904C7.49318 1.93813 7.74861 2.27615 7.88634 2.66651H14.6663V3.99984H7.88634C7.74861 4.3902 7.49318 4.72822 7.15527 4.96732C6.81737 5.20641 6.41362 5.33481 5.99967 5.33481C5.58573 5.33481 5.18198 5.20641 4.84407 4.96732C4.50617 4.72822 4.25074 4.3902 4.11301 3.99984H1.33301V2.66651H4.11301ZM5.99967 3.99984C6.17649 3.99984 6.34605 3.92961 6.47108 3.80458C6.5961 3.67956 6.66634 3.50999 6.66634 3.33318C6.66634 3.15637 6.5961 2.9868 6.47108 2.86177C6.34605 2.73675 6.17649 2.66651 5.99967 2.66651C5.82286 2.66651 5.65329 2.73675 5.52827 2.86177C5.40325 2.9868 5.33301 3.15637 5.33301 3.33318C5.33301 3.50999 5.40325 3.67956 5.52827 3.80458C5.65329 3.92961 5.82286 3.99984 5.99967 3.99984ZM9.99967 8.66651C10.1765 8.66651 10.3461 8.59627 10.4711 8.47125C10.5961 8.34622 10.6663 8.17665 10.6663 7.99984C10.6663 7.82303 10.5961 7.65346 10.4711 7.52844C10.3461 7.40342 10.1765 7.33318 9.99967 7.33318C9.82286 7.33318 9.65329 7.40342 9.52827 7.52844C9.40325 7.65346 9.33301 7.82303 9.33301 7.99984C9.33301 8.17665 9.40325 8.34622 9.52827 8.47125C9.65329 8.59627 9.82286 8.66651 9.99967 8.66651ZM5.99967 13.3332C6.17649 13.3332 6.34605 13.2629 6.47108 13.1379C6.5961 13.0129 6.66634 12.8433 6.66634 12.6665C6.66634 12.4897 6.5961 12.3201 6.47108 12.1951C6.34605 12.0701 6.17649 11.9998 5.99967 11.9998C5.82286 11.9998 5.65329 12.0701 5.52827 12.1951C5.40325 12.3201 5.33301 12.4897 5.33301 12.6665C5.33301 12.8433 5.40325 13.0129 5.52827 13.1379C5.65329 13.2629 5.82286 13.3332 5.99967 13.3332Z" fill="#3A434B"/>
</g>
<defs>
<clipPath id="clip0_119_79">
<rect width="16" height="16" fill="white"/>
</clipPath>
</defs>
</svg>
