<svg width="16" height="16" viewBox="0 0 16 16" fill="none" xmlns="http://www.w3.org/2000/svg">
<path d="M7.2002 1.6001C6.75837 1.6001 6.4002 1.95827 6.4002 2.4001C6.4002 2.84193 6.75837 3.2001 7.2002 3.2001H8.8002C9.24202 3.2001 9.6002 2.84193 9.6002 2.4001C9.6002 1.95827 9.24202 1.6001 8.8002 1.6001H7.2002Z" fill="currentColor"/>
<path fill-rule="evenodd" clip-rule="evenodd" d="M3.2002 4.0001C3.2002 3.11644 3.91654 2.4001 4.8002 2.4001C4.8002 3.72558 5.87471 4.8001 7.2002 4.8001H8.8002C10.1257 4.8001 11.2002 3.72558 11.2002 2.4001C12.0839 2.4001 12.8002 3.11644 12.8002 4.0001V12.8001C12.8002 13.6838 12.0839 14.4001 11.2002 14.4001H4.8002C3.91654 14.4001 3.2002 13.6838 3.2002 12.8001V4.0001ZM5.6002 7.2001C5.15837 7.2001 4.8002 7.55827 4.8002 8.0001C4.8002 8.44193 5.15837 8.8001 5.6002 8.8001H5.6082C6.05002 8.8001 6.4082 8.44193 6.4082 8.0001C6.4082 7.55827 6.05002 7.2001 5.6082 7.2001H5.6002ZM8.0002 7.2001C7.55837 7.2001 7.2002 7.55827 7.2002 8.0001C7.2002 8.44193 7.55837 8.8001 8.0002 8.8001H10.4002C10.842 8.8001 11.2002 8.44193 11.2002 8.0001C11.2002 7.55827 10.842 7.2001 10.4002 7.2001H8.0002ZM5.6002 10.4001C5.15837 10.4001 4.8002 10.7583 4.8002 11.2001C4.8002 11.6419 5.15837 12.0001 5.6002 12.0001H5.6082C6.05002 12.0001 6.4082 11.6419 6.4082 11.2001C6.4082 10.7583 6.05002 10.4001 5.6082 10.4001H5.6002ZM8.0002 10.4001C7.55837 10.4001 7.2002 10.7583 7.2002 11.2001C7.2002 11.6419 7.55837 12.0001 8.0002 12.0001H10.4002C10.842 12.0001 11.2002 11.6419 11.2002 11.2001C11.2002 10.7583 10.842 10.4001 10.4002 10.4001H8.0002Z" fill="currentColor"/>
</svg>
