<svg width="16" height="16" viewBox="0 0 16 16" fill="none" xmlns="http://www.w3.org/2000/svg">
<path d="M6.39961 7.1999C7.72509 7.1999 8.79961 6.12539 8.79961 4.7999C8.79961 3.47442 7.72509 2.3999 6.39961 2.3999C5.07413 2.3999 3.99961 3.47442 3.99961 4.7999C3.99961 6.12539 5.07413 7.1999 6.39961 7.1999Z" fill="currentColor"/>
<path d="M6.39961 8.7999C9.05058 8.7999 11.1996 10.9489 11.1996 13.5999H1.59961C1.59961 10.9489 3.74864 8.7999 6.39961 8.7999Z" fill="currentColor"/>
<path d="M12.7996 5.5999C12.7996 5.15807 12.4414 4.7999 11.9996 4.7999C11.5578 4.7999 11.1996 5.15807 11.1996 5.5999V6.3999H10.3996C9.95778 6.3999 9.59961 6.75807 9.59961 7.1999C9.59961 7.64173 9.95778 7.9999 10.3996 7.9999H11.1996V8.7999C11.1996 9.24173 11.5578 9.5999 11.9996 9.5999C12.4414 9.5999 12.7996 9.24173 12.7996 8.7999V7.9999H13.5996C14.0414 7.9999 14.3996 7.64173 14.3996 7.1999C14.3996 6.75807 14.0414 6.3999 13.5996 6.3999H12.7996V5.5999Z" fill="currentColor"/>
</svg>
