<svg width="16" height="16" viewBox="0 0 16 16" fill="none" xmlns="http://www.w3.org/2000/svg">
<g clip-path="url(#clip0_119_74)">
<path d="M12.0203 11.0779L14.8757 13.9326L13.9323 14.8759L11.0777 12.0206C10.0155 12.8721 8.69434 13.3352 7.33301 13.3333C4.02101 13.3333 1.33301 10.6453 1.33301 7.33325C1.33301 4.02125 4.02101 1.33325 7.33301 1.33325C10.645 1.33325 13.333 4.02125 13.333 7.33325C13.3349 8.69459 12.8718 10.0157 12.0203 11.0779ZM10.683 10.5833C11.5291 9.71318 12.0016 8.54687 11.9997 7.33325C11.9997 4.75459 9.91101 2.66659 7.33301 2.66659C4.75434 2.66659 2.66634 4.75459 2.66634 7.33325C2.66634 9.91125 4.75434 11.9999 7.33301 11.9999C8.54663 12.0018 9.71293 11.5293 10.583 10.6833L10.683 10.5833Z" fill="#3A434B"/>
</g>
<defs>
<clipPath id="clip0_119_74">
<rect width="16" height="16" fill="white"/>
</clipPath>
</defs>
</svg>
